<?xml version="1.0" encoding="UTF-8" standalone="no"?>
<svg
        width="37"
        height="40"
        viewBox="0 0 37.000001 40"
        fill="none"
        version="1.1"
        id="svg17"
        sodipodi:docname="patrol_icon.svg"
        inkscape:version="1.4.2 (ebf0e940d0, 2025-05-08)"
        xmlns:inkscape="http://www.inkscape.org/namespaces/inkscape"
        xmlns:sodipodi="http://sodipodi.sourceforge.net/DTD/sodipodi-0.dtd"
        xmlns="http://www.w3.org/2000/svg"
        xmlns:svg="http://www.w3.org/2000/svg">
    <g
            clip-path="url(#clip0_41_1021)"
            id="g17"
            transform="translate(0.34099831)">
        <mask
                id="mask0_41_1021"
                maskUnits="userSpaceOnUse"
                x="0"
                y="0"
                width="133"
                height="40">
            <path
                    d="M 133,0 H 0 v 40 h 133 z"
                    fill="#ffffff"
                    id="path1"/>
        </mask>
        <g
                mask="url(#mask0_41_1021)"
                id="g16">
            <path
                    d="M 33.2794,33.2344 H 2.95024 c -0.70807,0 -1.29813,-0.5935 -1.18012,-1.3056 L 5.90055,4.27301 C 6.25459,1.78042 8.37883,0 10.8571,0 h 14.3975 c 2.4782,0 4.6025,1.78042 4.9565,4.27301 l 4.1305,27.65579 c 0.236,0.7121 -0.3541,1.3056 -1.0622,1.3056 z"
                    fill="#CED0D6"
                    id="path8"/>
            <path
                    d="m 11.5651,13.7689 h 2.0062 c 0.3541,0 0.7081,0.3561 0.7081,0.7122 v 2.0178 c 0,0.356 -0.354,0.7121 -0.7081,0.7121 h -2.0062 c -0.354,0 -0.708,-0.3561 -0.708,-0.7121 v -2.0178 c 0,-0.4748 0.354,-0.7122 0.708,-0.7122 z"
                    fill="#1d1d1b"
                    fill-opacity="1"
                    id="path9"/>
            <path
                    d="m 7.78877,17.9236 h 2.00621 c 0.35402,0 0.70812,0.3561 0.70812,0.7122 v 2.0177 c 0,0.3561 -0.3541,0.7122 -0.70812,0.7122 H 7.78877 c -0.35404,0 -0.70808,-0.3561 -0.70808,-0.7122 v -2.0177 c 0.11803,-0.3561 0.35404,-0.7122 0.70808,-0.7122 z"
                    fill="#1d1d1b"
                    fill-opacity="1"
                    id="path10"/>
            <path
                    d="m 11.5651,22.0773 h 2.0062 c 0.3541,0 0.7081,0.3561 0.7081,0.7121 v 2.0178 c 0,0.3561 -0.354,0.7122 -0.7081,0.7122 h -2.0062 c -0.354,0 -0.708,-0.3561 -0.708,-0.7122 v -2.0178 c 0,-0.4747 0.354,-0.7121 0.708,-0.7121 z"
                    fill="#1d1d1b"
                    fill-opacity="1"
                    id="path11"/>
            <path
                    d="m 24.6645,3.79846 h -2.0062 c -0.3541,0 -0.7081,0.35609 -0.7081,0.71218 v 2.01781 c 0,0.35608 0.354,0.71217 0.7081,0.71217 h 2.0062 c 0.354,0 0.7081,-0.35609 0.7081,-0.71217 V 4.39194 c 0,-0.35609 -0.3541,-0.59348 -0.7081,-0.59348 z"
                    fill="#1d1d1b"
                    fill-opacity="1"
                    id="path12"/>
            <path
                    d="m 28.4409,7.95312 h -2.0063 c -0.354,0 -0.708,0.35609 -0.708,0.71217 v 2.01781 c 0,0.356 0.354,0.7121 0.708,0.7121 h 2.0063 c 0.354,0 0.708,-0.3561 0.708,-0.7121 V 8.66529 c -0.118,-0.35608 -0.354,-0.71217 -0.708,-0.71217 z"
                    fill="#1d1d1b"
                    fill-opacity="1"
                    id="path13"/>
            <path
                    d="m 24.6645,12.1069 h -2.0062 c -0.3541,0 -0.7081,0.3561 -0.7081,0.7122 v 2.0178 c 0,0.3561 0.354,0.7122 0.7081,0.7122 h 2.0062 c 0.354,0 0.7081,-0.3561 0.7081,-0.7122 v -2.0178 c 0,-0.4748 -0.3541,-0.7122 -0.7081,-0.7122 z"
                    fill="#1d1d1b"
                    fill-opacity="1"
                    id="path14"/>
            <path
                    d="m 17.1116,4.39221 h 2.0063 c 0.354,0 0.708,0.35609 0.708,0.71217 V 28.8433 c 0,0.3561 -0.354,0.7122 -0.708,0.7122 h -2.0063 c -0.354,0 -0.708,-0.3561 -0.708,-0.7122 V 5.10438 c 0.118,-0.47478 0.354,-0.71217 0.708,-0.71217 z"
                    fill="#1d1d1b"
                    fill-opacity="1"
                    id="path15"/>
            <path
                    d="M 35.0497,39.9996 H 1.18012 C 0.47205,39.9996 0,39.5249 0,38.8127 v -1.4243 c 0,-0.7122 0.47205,-1.187 1.18012,-1.187 H 35.0497 c 0.7081,0 1.1801,0.4748 1.1801,1.187 v 1.4243 c 0,0.5935 -0.472,1.1869 -1.1801,1.1869 z"
                    fill="#CED0D6"
                    id="path16"/>
        </g>
    </g>
</svg>
